<svg xmlns="http://www.w3.org/2000/svg" xmlns:xlink="http://www.w3.org/1999/xlink" viewBox="0 0 1067.62 313.63"><defs><style>.cls-1{isolation:isolate;}.cls-2{fill:url(#linear-gradient);}.cls-3{fill:url(#linear-gradient-2);}.cls-4{fill:url(#linear-gradient-3);}.cls-5,.cls-6{mix-blend-mode:multiply;opacity:0.5;}.cls-5{fill:url(#Gray_layer_2);}.cls-6{fill:url(#Gray_top_4);}.cls-7{fill:url(#linear-gradient-4);}.cls-8{fill:url(#linear-gradient-5);}.cls-9{fill:url(#linear-gradient-6);}.cls-10{fill:url(#linear-gradient-7);}.cls-11{fill:url(#linear-gradient-8);}.cls-12{fill:url(#linear-gradient-9);}.cls-13,.cls-14{fill:#de271f;}.cls-14{fill-rule:evenodd;}.cls-15{fill:#490e67;}</style><linearGradient id="linear-gradient" x1="29.76" y1="58.62" x2="134.62" y2="9.72" gradientUnits="userSpaceOnUse"><stop offset="0.16" stop-color="#542e81"/><stop offset="0.23" stop-color="#583384"/><stop offset="0.31" stop-color="#62408c"/><stop offset="0.39" stop-color="#73569a"/><stop offset="0.47" stop-color="#8c75ad"/><stop offset="0.53" stop-color="#a494c0"/><stop offset="0.83" stop-color="#542e81"/></linearGradient><linearGradient id="linear-gradient-2" x1="343.76" y1="45.05" x2="343.76" y2="195.08" xlink:href="#linear-gradient"/><linearGradient id="linear-gradient-3" x1="44.96" y1="182.69" x2="44.96" y2="68.91" xlink:href="#linear-gradient"/><linearGradient id="Gray_layer_2" x1="195.61" y1="183.88" x2="195.61" y2="58.37" gradientUnits="userSpaceOnUse"><stop offset="0.11" stop-color="#414141"/><stop offset="0.31" stop-color="#fff"/><stop offset="0.42" stop-color="#fff"/><stop offset="0.78" stop-color="#fff"/><stop offset="0.8" stop-color="#fafafa"/><stop offset="0.82" stop-color="#ededed"/><stop offset="0.84" stop-color="#d7d7d7"/><stop offset="0.86" stop-color="#b8b8b8"/><stop offset="0.89" stop-color="#909090"/><stop offset="0.91" stop-color="#606060"/><stop offset="0.92" stop-color="#414141"/></linearGradient><linearGradient id="Gray_top_4" x1="29.76" y1="58.62" x2="134.62" y2="9.72" gradientUnits="userSpaceOnUse"><stop offset="0.52" stop-color="#fff"/><stop offset="0.54" stop-color="#f5f5f5"/><stop offset="0.63" stop-color="#b6b4b5"/><stop offset="0.72" stop-color="#827f7f"/><stop offset="0.8" stop-color="#595556"/><stop offset="0.88" stop-color="#3b3738"/><stop offset="0.94" stop-color="#292525"/><stop offset="0.98" stop-color="#231e1f"/></linearGradient><linearGradient id="linear-gradient-4" x1="124.41" y1="11.52" x2="267.92" y2="241.18" gradientUnits="userSpaceOnUse"><stop offset="0" stop-color="#f7b634"/><stop offset="0.04" stop-color="#f5a133"/><stop offset="0.14" stop-color="#f17b30"/><stop offset="0.23" stop-color="#ed5d2e"/><stop offset="0.32" stop-color="#eb482d"/><stop offset="0.41" stop-color="#e93b2c"/><stop offset="0.49" stop-color="#e9372c"/><stop offset="0.59" stop-color="#e93b2c"/><stop offset="0.68" stop-color="#eb462d"/><stop offset="0.76" stop-color="#ed592e"/><stop offset="0.85" stop-color="#f07330"/><stop offset="0.93" stop-color="#f39532"/><stop offset="1" stop-color="#f7b634"/></linearGradient><linearGradient id="linear-gradient-5" x1="124.41" y1="11.52" x2="267.92" y2="241.18" gradientUnits="userSpaceOnUse"><stop offset="0" stop-color="#f7b634" stop-opacity="0"/><stop offset="0.02" stop-color="#f6ac33" stop-opacity="0.08"/><stop offset="0.09" stop-color="#f38e31" stop-opacity="0.32"/><stop offset="0.16" stop-color="#f07330" stop-opacity="0.53"/><stop offset="0.23" stop-color="#ed5e2e" stop-opacity="0.7"/><stop offset="0.3" stop-color="#eb4d2d" stop-opacity="0.83"/><stop offset="0.37" stop-color="#ea412d" stop-opacity="0.92"/><stop offset="0.43" stop-color="#e9392c" stop-opacity="0.98"/><stop offset="0.49" stop-color="#e9372c"/><stop offset="0.55" stop-color="#e93a2c" stop-opacity="0.98"/><stop offset="0.61" stop-color="#ea422d" stop-opacity="0.91"/><stop offset="0.69" stop-color="#ec4f2e" stop-opacity="0.81"/><stop offset="0.76" stop-color="#ee622f" stop-opacity="0.66"/><stop offset="0.84" stop-color="#f07a30" stop-opacity="0.47"/><stop offset="0.92" stop-color="#f49732" stop-opacity="0.24"/><stop offset="1" stop-color="#f7b634" stop-opacity="0"/></linearGradient><linearGradient id="linear-gradient-6" x1="107.16" y1="196.46" x2="107.16" y2="0.03" gradientUnits="userSpaceOnUse"><stop offset="0.06" stop-color="#e9372c"/><stop offset="0.15" stop-color="#ed5c2e"/><stop offset="0.25" stop-color="#f18331"/><stop offset="0.35" stop-color="#f49f33"/><stop offset="0.44" stop-color="#f6b034"/><stop offset="0.5" stop-color="#f7b634"/><stop offset="0.51" stop-color="#f7b534"/><stop offset="0.69" stop-color="#ef7130"/><stop offset="0.82" stop-color="#eb472d"/><stop offset="0.88" stop-color="#e9372c"/></linearGradient><linearGradient id="linear-gradient-7" x1="297.42" y1="42.45" x2="249.72" y2="287.85" xlink:href="#linear-gradient-6"/><linearGradient id="linear-gradient-8" x1="107.16" y1="196.46" x2="107.16" y2="0.03" gradientUnits="userSpaceOnUse"><stop offset="0.06" stop-color="#ea3c2e"/><stop offset="0.5" stop-color="#f7b634" stop-opacity="0"/><stop offset="0.53" stop-color="#f7b134" stop-opacity="0.04"/><stop offset="0.59" stop-color="#f5a533" stop-opacity="0.14"/><stop offset="0.66" stop-color="#f39032" stop-opacity="0.31"/><stop offset="0.74" stop-color="#f07331" stop-opacity="0.55"/><stop offset="0.84" stop-color="#ec4f2f" stop-opacity="0.85"/><stop offset="0.88" stop-color="#ea3c2e"/></linearGradient><linearGradient id="linear-gradient-9" x1="297.42" y1="42.45" x2="249.72" y2="287.85" gradientUnits="userSpaceOnUse"><stop offset="0.06" stop-color="#ea3c2e"/><stop offset="0.5" stop-color="#f7b634" stop-opacity="0"/><stop offset="0.53" stop-color="#f6b233" stop-opacity="0.04"/><stop offset="0.58" stop-color="#f5a632" stop-opacity="0.14"/><stop offset="0.64" stop-color="#f29330" stop-opacity="0.31"/><stop offset="0.71" stop-color="#ed792d" stop-opacity="0.55"/><stop offset="0.78" stop-color="#e95c29" stop-opacity="0.8"/><stop offset="0.94" stop-color="#ea3c2e"/></linearGradient></defs><g class="cls-1"><g id="Layer_2" data-name="Layer 2"><g id="LOGO"><path class="cls-2" d="M31.65,47.22c7.35-2.07,32.11-23.44,88.7-7.66a166.6,166.6,0,0,1,29.71,12.67L150.7,51c-3.28-18.26-7.25-23.81-18.87-32.85-1.51-1.29-12.74-9.34-20.25-12S82.24,0,82,0C49.93-.54,25.28,11.35,14.28,16.13,14.28,16.13,19,50.78,31.65,47.22Z"/><path class="cls-3" d="M338.2,154c-13.08,21.36-33.7,24-33.7,24,36.44,14.42,63.41-2.28,63.41-2.28l3.29-1.37c4.49-5.34,8.43-9.55,12.68-18,17.17-34.13,1.39-71.11-18.11-86.75a24.31,24.31,0,0,0-6.41-4l-.34-.1c-7.59-1.94-19-8-36-7.06-8.89.49-31.14,8-25.92,8.88C351.06,76,355.23,126.14,338.2,154Z"/><path class="cls-4" d="M80.6,174.5a43.56,43.56,0,0,1-15.88-7.86c-19-16.4-26.5-43.83-11.36-72.36,1.41-2.63,7.44-12.45,20.16-20.69,2.54-1.65-33.83-5.38-31.28-4.57L26.56,75.43a50.63,50.63,0,0,0-6.08,2.68c-1.12.79-4.14,3.45-5.2,4.35A57.39,57.39,0,0,0,7.22,94.28C-9.93,126.58,6.5,158.4,25,172.16A31.3,31.3,0,0,0,31.74,176l.34.1c34.49,14.83,57.84-.05,57.84-.05A92.23,92.23,0,0,1,80.6,174.5Z"/><path class="cls-5" d="M297.07,67.35c-5.22-.84,17-8.39,25.92-8.88,17-1,28.44,5.12,36,7.06l.34.1a24.31,24.31,0,0,1,6.41,4c19.5,15.64,35.28,52.62,18.11,86.75-4.25,8.45-8.19,12.66-12.68,18l-3.29,1.37s-27,16.7-63.41,2.28c0,0,20.62-2.67,33.7-24C355.23,126.14,351.06,76,297.07,67.35ZM80.6,174.5a43.56,43.56,0,0,1-15.88-7.86c-19-16.4-26.5-43.83-11.36-72.36,1.41-2.63,7.44-12.45,20.16-20.69,2.54-1.65-33.83-5.38-31.28-4.57L26.56,75.43a50.63,50.63,0,0,0-6.08,2.68c-1.12.79-4.14,3.45-5.2,4.35A57.39,57.39,0,0,0,7.22,94.28C-9.93,126.58,6.5,158.4,25,172.16A31.3,31.3,0,0,0,31.74,176l.34.1c34.49,14.83,57.84-.05,57.84-.05A92.23,92.23,0,0,1,80.6,174.5Z"/><path class="cls-6" d="M31.65,47.22c7.35-2.07,32.11-23.44,88.7-7.66a166.6,166.6,0,0,1,29.71,12.67L150.7,51c-3.28-18.26-7.25-23.81-18.87-32.85-1.51-1.29-12.74-9.34-20.25-12S82.24,0,82,0C49.93-.54,25.28,11.35,14.28,16.13,14.28,16.13,19,50.78,31.65,47.22Z"/><path class="cls-7" d="M235.26,174C210.4,158.8,109.7,91.27,109.7,91.27c-58.06-36.35-94.42-8.81-94.42-8.81s5.76-6.31,11-9.59c30.16-20.24,71.08-20,103.68-7,6.71,2.67,13.13,5.74,18.4,8.45l3.14,1.6s65,36.9,98.3,63.56l.71.52a315.38,315.38,0,0,0,29.06,19.18l1.91,1.16c24.42,15,40.11,16.73,56.9,17.22,22.88.65,36-7.41,37.5-8.91,1-.95-5.23,7.57-13,13-25,18-69.12,19.28-101.73,5.53a227.74,227.74,0,0,1-24.52-12.36Z"/><path class="cls-8" d="M235.26,174C210.4,158.8,109.7,91.27,109.7,91.27c-58.06-36.35-94.42-8.81-94.42-8.81s5.76-6.31,11-9.59c30.16-20.24,71.08-20,103.68-7,6.71,2.67,13.13,5.74,18.4,8.45l3.14,1.6s65,36.9,98.3,63.56l.71.52a315.38,315.38,0,0,0,29.06,19.18l1.91,1.16c24.42,15,40.11,16.73,56.9,17.22,22.88.65,36-7.41,37.5-8.91,1-.95-5.23,7.57-13,13-25,18-69.12,19.28-101.73,5.53a227.74,227.74,0,0,1-24.52-12.36Z"/><path class="cls-9" d="M157.68,29.29C146,18.62,124.12,1.82,84.74.12,84.27.1,83.53.06,82,0c0,0,24.8,4.2,43.46,19.89,24.89,20.92,32.75,51.15,26.63,81.55-10.4,51.6-56.83,77.67-93.34,78.19-12.3.18-25.34-3.44-36.38-9.56,0,0,9.56,8.78,18.78,13.55,12.61,6.52,28.49,12.74,54,12.8,36.51.11,85-26.42,95.27-78C198.66,77,171.09,41.48,157.68,29.29Z"/><path class="cls-10" d="M236.39,283.33V174.6c0-33.43,3.7-42.39,3.7-42.39,14-46.91,59-70.42,92.56-70.06,16.8.18,30.48,7.68,38.69,12.6,0,0-25.83-29.81-75.43-30.73-32.41-.6-74.23,21.39-90.38,64.53,0,0-6.49,14.45-6.19,42.07L199.6,256S198.67,285.68,236.39,283.33Z"/><path class="cls-11" d="M157.68,29.29C146,18.62,124.12,1.82,84.74.12,84.27.1,83.53.06,82,0c0,0,24.8,4.2,43.46,19.89,24.89,20.92,32.75,51.15,26.63,81.55-10.4,51.6-56.83,77.67-93.34,78.19-12.3.18-25.34-3.44-36.38-9.56,0,0,9.56,8.78,18.78,13.55,12.61,6.52,28.49,12.74,54,12.8,36.51.11,85-26.42,95.27-78C198.66,77,171.09,41.48,157.68,29.29Z"/><path class="cls-12" d="M236.39,283.33V174.6c0-33.43,3.7-42.39,3.7-42.39,14-46.91,59-70.42,92.56-70.06,16.8.18,30.48,7.68,38.69,12.6,0,0-25.83-29.81-75.43-30.73-32.41-.6-74.23,21.39-90.38,64.53,0,0-6.49,14.45-6.19,42.07L199.6,256S198.67,285.68,236.39,283.33Z"/><path class="cls-13" d="M463.41,271.71l8.49-27.19h9.34l8.41,27.19,8.49-27.19h9.35l-13.09,39H485l-8.49-25-8.33,25h-9.43l-13.08-39H455Z"/><path class="cls-13" d="M516.83,228.4a5.42,5.42,0,0,1,5.45,5.45,5.49,5.49,0,0,1-5.45,5.54,5.56,5.56,0,0,1-5.53-5.54A5.49,5.49,0,0,1,516.83,228.4Zm-4.52,16.12h9v39h-9Z"/><path class="cls-13" d="M529.29,232.84h9v11.68H552v8.57H538.32v16.67c0,4.52,2.19,6,5.46,6a19.61,19.61,0,0,0,8.33-1.79l2.57,8a23,23,0,0,1-10.9,2.34c-8.34,0-14.49-3.82-14.49-14.57Z"/><path class="cls-13" d="M559.35,229h9v15.34a76.51,76.51,0,0,1,7.79-.62c9.82,0,17,5.22,17,17.05v22.75h-9V260c0-6-3.42-7.86-8.64-7.86a22.2,22.2,0,0,0-7.17.93v30.38h-9Z"/><path class="cls-14" d="M747,244.52h8.67l.1,6.41.8-1.09a13.83,13.83,0,0,1,4.44-4.1,15.72,15.72,0,0,1,8.58-2.18,22.57,22.57,0,0,1,4.39.5,11.23,11.23,0,0,1,8,7.9c.26.94.46,5.4.54,11.93v19.57h-1.78c-5.73,0-6.9-2.58-7.28-4.48v-.05l0-17.53c-.1-3.61-.62-7.56-3.78-9.39a7.32,7.32,0,0,0-3.86-.95,8.47,8.47,0,0,0-7.09,3.75c-2.08,3-2.17,6.81-2.24,9.85l-.1,18.81h-9.29Zm140.33,39h9.29l.11-18.81c.06-3,.15-6.82,2.23-9.85a8.47,8.47,0,0,1,7.1-3.75,7.31,7.31,0,0,1,3.85.95c3.16,1.83,3.68,5.78,3.78,9.39l0,17.53V279c.38,1.9,1.55,4.44,7.28,4.48h1.78V263.89c-.08-6.53-.28-11-.53-11.93a11.26,11.26,0,0,0-8-7.9,22.57,22.57,0,0,0-4.39-.5,15.72,15.72,0,0,0-8.58,2.18,13.83,13.83,0,0,0-4.44,4.1l-.8,1.09-.1-6.41h-8.67Zm87.2-3.73a11,11,0,0,0,3.85-8.56,10.34,10.34,0,0,0-6-9.85,39.45,39.45,0,0,0-4.68-1.66c-1.34-.42-2.74-.85-4.07-1.41s-3.15-1.29-3.15-3.41a3.92,3.92,0,0,1,2.29-3.45,11,11,0,0,1,5.27-1.09,19.49,19.49,0,0,1,4.26.4c.4.08.74.14,1.13.19h.17c1.39,0,2.73-2,2.91-3.7a18.21,18.21,0,0,0,.12-1.92v-.43l-.41-.1a37.79,37.79,0,0,0-9.59-1.2c-9.17,0-12.89,4.36-14.07,6.25a11.26,11.26,0,0,0-1.45,5.43A10.46,10.46,0,0,0,957.8,265a38.05,38.05,0,0,0,3.81,1.43,36.72,36.72,0,0,1,4.34,1.66,4.42,4.42,0,0,1,2.91,3.67c0,2.2-2.26,4.55-7.24,4.55a19.19,19.19,0,0,1-4.28-.49h-.25c-3,0-4.92,1.71-5.42,4.79v0l-.17,1.49.56.18a40.52,40.52,0,0,0,10.82,1.52A16.89,16.89,0,0,0,974.55,279.75Zm-30.44-4c-6.67.55-6.17-4.1-6.27-7.19V250.46l6.31-.06c3.17-.12,2.37-6.86,2.37-6.86h-8.63v-10.7H936c-4.85,1.17-7.2,3.66-7.2,7.61l0,2.72v23.39c-.07,4.57-.15,10.26,3.18,13.66,3,3,8,3.26,9.42,3.26a23,23,0,0,0,5.88-.86C947.64,275.68,944.11,275.76,944.11,275.76Zm-311.38,7.73c7.28,0,10.89-2.91,12.25-4.83.58,1.79,1.92,4.85,4.23,4.85h4.24l-.13-22.42c-.08-4.64-.16-7-1-9.25s-3-6.15-9.78-7.7a25.18,25.18,0,0,0-5.75-.58c-4.87,0-7.84.73-12.66,2.36l-.42.15.12,1c.51,3.49,1.28,5.12,2.44,5.12l.31,0a12.78,12.78,0,0,0,1.51-.51,20.52,20.52,0,0,1,7.73-1.58c5.72,0,7.68,3,8.34,4.72a16.55,16.55,0,0,1,.62,4.3v.39l-.38,0c-1.77-.07-3.82-.15-5.83-.15-5.76,0-13.86.64-17.72,6.26A11.52,11.52,0,0,0,619,271.8a11,11,0,0,0,1.75,6c3.26,5.26,9.82,5.67,11.74,5.67ZM644.31,265l.78,0-.05.65c-.23,2.89-.43,5.38-2.31,7.86a9.67,9.67,0,0,1-7.55,3.82c-1.33,0-4.58-.32-5.94-3.3a6,6,0,0,1-.55-2.3,5.14,5.14,0,0,1,.72-2.65,6.57,6.57,0,0,1,2.23-2.39c2.66-1.62,6.52-1.8,9.19-1.8C642.07,265,643.26,265,644.31,265Zm56.62,18.45v-39h-9.41v32.15c0,4.37,4.28,6.81,7.24,6.82Zm179.46,0v-39H871v32.15c0,4.37,4.28,6.81,7.24,6.82Zm-186-43.58.39-.07.07,0,.27,0a1,1,0,0,0,.3,0,2.48,2.48,0,0,0,.82-.16.68.68,0,0,0,.31-.58.8.8,0,0,0,.28-.16,1.17,1.17,0,0,0,.29,0c.48-.06.57-.58.61-1a.8.8,0,0,0,.27-.12l0-.07h0a.48.48,0,0,0,.18,0l.2.08.25-.24a.65.65,0,0,0,.19-.35h.09a.75.75,0,0,0,.21,0,.72.72,0,0,0,.22,0,.76.76,0,0,0,.65-.39.72.72,0,0,0,.24-.11c1-.49,1.6-1.59,1.84-3.27v0l0-.14,0-.14a1.28,1.28,0,0,0-.38-.71s0-.08,0-.1l.11-.21-.26-.25a1,1,0,0,0-.1-.15l-.06-.12c0-.11-.23-.67-.25-.75l0-.12,0-.09-.15-.26c0-.13-.15-.23-.44-.52-.11-.11-.31-.31-.39-.41a1.82,1.82,0,0,0-.47-.54l-.12-.11-.07-.07a.8.8,0,0,0-.13-.21l-.15-.27h-.08l0-.05a.6.6,0,0,0-.2-.15l0-.06a.56.56,0,0,0-.09-.4l-.18-.25h-.33a.92.92,0,0,0-.24-.17l0,0a.64.64,0,0,0-.27-.21l-.35-.14-.07.07a.6.6,0,0,0-.37-.13.62.62,0,0,0-.39.14h-.1a1,1,0,0,0-.59.25,3.42,3.42,0,0,0-.72.41,5.36,5.36,0,0,1-.5.31h-.06l-.1.05a.68.68,0,0,0-.25.23.78.78,0,0,0-.33.12.67.67,0,0,0-.31.52,1.53,1.53,0,0,0-.14.29h-.27l-.44.16v.25a.5.5,0,0,0-.11.18h0l0,0a.61.61,0,0,0-.22.2,2.8,2.8,0,0,0-.53-.09.66.66,0,0,0-.56.27,1,1,0,0,0-.17.27.9.9,0,0,0-.42.48l-.3.2.14.35c0,.09,0,.29,0,.52a6.28,6.28,0,0,0,.3,2.2l0,.05.05,0,0,0a1,1,0,0,0,.14.6.83.83,0,0,0-.16.6l0,.23.1.06v.08l.1.18a1,1,0,0,0,.28.35h0a1,1,0,0,0,.29.43l0,0,.12.07a2.51,2.51,0,0,0,.76.3,1.06,1.06,0,0,0,.54.41.08.08,0,0,1,0,0l0,.06.05.06a3.42,3.42,0,0,1,.19.59,3.57,3.57,0,0,0,.39,1.05.6.6,0,0,0,.45.36Zm179.46,0,.35-.07.11,0,.27,0a1,1,0,0,0,.3,0,2.48,2.48,0,0,0,.82-.16.68.68,0,0,0,.31-.58.8.8,0,0,0,.28-.16,1.11,1.11,0,0,0,.29,0c.48-.06.57-.58.61-1a.8.8,0,0,0,.27-.12l.05-.07h0a.58.58,0,0,0,.19,0l.19.08.25-.24a.65.65,0,0,0,.19-.35h.1a.76.76,0,0,1,.42,0,.76.76,0,0,0,.65-.39.72.72,0,0,0,.24-.11c1-.49,1.6-1.59,1.84-3.27v0l.05-.14,0-.14a1.28,1.28,0,0,0-.38-.71s0-.08,0-.1l.11-.21-.26-.25a1,1,0,0,0-.1-.15l-.06-.12c-.05-.11-.23-.67-.25-.75l0-.12-.06-.09-.15-.26c0-.13-.15-.23-.44-.52-.11-.11-.31-.31-.39-.41a1.82,1.82,0,0,0-.47-.54l-.12-.11-.07-.07a.8.8,0,0,0-.13-.21l-.15-.27h-.08l0-.05a.6.6,0,0,0-.2-.15s0,0,0-.06a.56.56,0,0,0-.09-.4l-.18-.25h-.33a.92.92,0,0,0-.24-.17l0,0a.69.69,0,0,0-.26-.21l-.36-.14-.07.07a.6.6,0,0,0-.37-.13.62.62,0,0,0-.39.14h-.1a1,1,0,0,0-.59.25,3.42,3.42,0,0,0-.72.41,5.36,5.36,0,0,1-.5.31h0l-.11.05a.77.77,0,0,0-.25.23.78.78,0,0,0-.33.12.67.67,0,0,0-.31.52,1.09,1.09,0,0,0-.14.29h-.26l-.45.16v.25a.5.5,0,0,0-.11.18h0l0,0a.61.61,0,0,0-.22.2,2.67,2.67,0,0,0-.53-.09.66.66,0,0,0-.56.27,1.34,1.34,0,0,0-.17.27.9.9,0,0,0-.42.48l-.3.2.14.35c0,.09,0,.29,0,.52a6.14,6.14,0,0,0,.31,2.2l0,.05.05,0,0,0a1,1,0,0,0,.14.6.83.83,0,0,0-.16.6l0,.23.1.06v.08l.1.18a1,1,0,0,0,.28.35h0a1,1,0,0,0,.29.43l0,0,.12.07a2.62,2.62,0,0,0,.76.3,1.06,1.06,0,0,0,.54.41s0,0,0,0l0,.06,0,.06a3.42,3.42,0,0,1,.19.59,3.57,3.57,0,0,0,.39,1.05.62.62,0,0,0,.45.36Zm-75.59,7.84a6.54,6.54,0,0,0-.28-1.91c-.29-1-1.38-1-2.15-1.25a1.15,1.15,0,0,1-1.18-.63c-1.19-.34-.49,1.53-1.58,1.6-.32,0-.7,0-.9-.32s0-1.09-.65-.92c-.36.31-.84.14-1.24.21-.27-.34-.52-1-1-1a.85.85,0,0,0-.72.51,16,16,0,0,0-.61,4.46l-.1.17a13.35,13.35,0,0,0-.26,2.72,8.86,8.86,0,0,0,.21,1.46c.16.14.34.05.46-.1a4.55,4.55,0,0,1,.31-1.38c0-.06.12,0,.17,0,0,.57,0,1.13.08,1.67,0,1.95-.07,4-.11,5.94l0,1.24c-.25,2.12-.07,4.24-.17,6.4.1,1.87-.18,3.9-.08,5.87a9.3,9.3,0,0,1-.08,1.2,8.6,8.6,0,0,1-.05,1.51c.16.49.63.94.81.13.1,0,.11.14.17.22,0,1.83.06,3.58,0,5.34.06,1.05.08,2.22.06,3.22s-.06,2-.06,2.93a25,25,0,0,0,0,3.47c0,.51.29.85.32,1.32a4.32,4.32,0,0,1-.09,2,1.5,1.5,0,0,0,.06.73c.17.05,0,.29.15.38.11.77-.32,1.45-.23,2.24a4.59,4.59,0,0,1,.15,2.21c-.15.12-.33.32-.25.55-.08.36.31.32.46.51.24-.1.18-.37.25-.58a7.3,7.3,0,0,1,0-1.81c-.07-1.31.2-2.56.15-3.82,0-2.68.2-5.5.2-8.15a31,31,0,0,1,.07-4.31c0-.86.55-.16.51,1,0,1.91-.07,3.84,0,5.7a38,38,0,0,0,.12,6.85c.42-1,.22-2.09.52-3.09.07-.13.17,0,.22,0,.05,2.9.13,5.62,0,8.49,0,.73,0,1.51,0,2.17a7.31,7.31,0,0,0-.07,2.2c.06.08.17,0,.24,0l.46-.92-.1-.69c.17-.13.15-.34.28-.5a1.76,1.76,0,0,0-.43-1.32c0-.42.18-.68.08-1.06.31-1.65.35-3.43.7-5.08.31,0,.18.38.37.53,0,1.74,0,3.52-.18,5.27,0,.38-.16.79,0,1.12-.15,1.28,0,2.52-.23,3.78a.16.16,0,0,1,.08.15c0,.27.3.33.51.42a3.37,3.37,0,0,0,.07.84L793.5,310a2.07,2.07,0,0,0,.46,1.82,6,6,0,0,0,.17,1.77s.18.11.23,0a51,51,0,0,1,.61-5.21l.13.2v1.7c0,.69-.09,1.39,0,2,.13,0,.13-.17.24-.24l.19-1.3.66-.86a5.9,5.9,0,0,0,.33-1.84c.13-3.27.3-6.56.4-9.77a1.9,1.9,0,0,1,.9-1.39c.21-.18.1-.42.21-.64,0-.53.13-1,.13-1.52a9.11,9.11,0,0,0,0-1.28c.09-1.77.14-3.48.19-5.18.11-1.28,0-2.64.07-3.9,0-1.57.06-3.15,0-4.71.06-.4.09-.87.12-1.29.06-.72.43-.79.43-.79l.6.75a17.48,17.48,0,0,0,2,2.19,13.65,13.65,0,0,0,8.85,3.07c4.28,0,11.92-1.46,15.07-11.28a30.13,30.13,0,0,0,1.4-9.39c0-7.56-2.48-12.06-4.56-14.5a14.29,14.29,0,0,0-10.95-4.9h-.16c-6.67,0-11.15,4.15-13,6.31C798.16,249.87,798.25,248.46,798.22,247.75Zm14.3,4.73c4.06,2.63,4.49,8.43,4.49,10.8,0,2.18-.4,9.48-5.73,12.06a7.72,7.72,0,0,1-3.52.78,8.82,8.82,0,0,1-4.23-1c-4.48-2.53-5.14-8.15-5.14-11.28,0-5,1.69-8.89,4.75-11a9.51,9.51,0,0,1,5.16-1.56A7.58,7.58,0,0,1,812.52,252.48Zm-94.3,31c7.28,0,10.88-2.91,12.25-4.83.58,1.79,1.91,4.85,4.22,4.85h4.25l-.14-22.42c-.08-4.64-.16-7-1-9.25s-3-6.15-9.77-7.7a25.27,25.27,0,0,0-5.75-.58c-4.88,0-7.85.73-12.67,2.36l-.41.15.12,1c.5,3.49,1.27,5.12,2.43,5.12a1.63,1.63,0,0,0,.31,0,12.2,12.2,0,0,0,1.51-.51,20.58,20.58,0,0,1,7.74-1.58c5.71,0,7.68,3,8.34,4.72a16.55,16.55,0,0,1,.62,4.3v.39l-.38,0c-1.76-.07-3.82-.15-5.82-.15-5.76,0-13.87.64-17.72,6.26a11.52,11.52,0,0,0-1.91,6.26,11,11,0,0,0,1.75,6c3.25,5.26,9.81,5.67,11.74,5.67ZM729.8,265l.77,0-.05.65c-.23,2.89-.42,5.38-2.31,7.86a9.65,9.65,0,0,1-7.54,3.82c-1.33,0-4.58-.32-5.94-3.3a5.8,5.8,0,0,1-.55-2.3,5,5,0,0,1,.72-2.65,6.52,6.52,0,0,1,2.22-2.39c2.66-1.62,6.52-1.8,9.19-1.8C727.56,265,728.75,265,729.8,265Zm114.51,18.45c7.28,0,10.88-2.91,12.25-4.83.58,1.79,1.91,4.85,4.22,4.85H865l-.14-22.42c-.08-4.64-.16-7-1-9.25s-3-6.15-9.77-7.7a25.27,25.27,0,0,0-5.75-.58c-4.88,0-7.85.73-12.66,2.36l-.42.15.12,1c.5,3.49,1.27,5.12,2.43,5.12a1.63,1.63,0,0,0,.31,0,11.67,11.67,0,0,0,1.51-.51,20.58,20.58,0,0,1,7.74-1.58c5.71,0,7.68,3,8.34,4.72a16.55,16.55,0,0,1,.62,4.3v.39l-.39,0c-1.76-.07-3.81-.15-5.82-.15-5.76,0-13.86.64-17.72,6.26a11.52,11.52,0,0,0-1.91,6.26,11,11,0,0,0,1.75,6c3.26,5.26,9.81,5.67,11.74,5.67ZM855.89,265l.77,0,0,.65c-.22,2.89-.42,5.38-2.31,7.86a9.65,9.65,0,0,1-7.54,3.82c-1.33,0-4.58-.32-5.94-3.3a5.8,5.8,0,0,1-.55-2.3,5,5,0,0,1,.72-2.65,6.61,6.61,0,0,1,2.22-2.39c2.67-1.62,6.52-1.8,9.19-1.8C853.65,265,854.84,265,855.89,265ZM682.05,279.75a11,11,0,0,0,3.84-8.56,10.33,10.33,0,0,0-6-9.85,39.45,39.45,0,0,0-4.68-1.66c-1.34-.42-2.74-.85-4.07-1.41S668,257,668,254.86a3.92,3.92,0,0,1,2.29-3.45,11,11,0,0,1,5.27-1.09,19.49,19.49,0,0,1,4.26.4c.4.08.74.14,1.13.19h.17c1.39,0,2.73-2,2.91-3.7a18.21,18.21,0,0,0,.12-1.92v-.43l-.41-.1a37.79,37.79,0,0,0-9.59-1.2c-9.17,0-12.89,4.36-14.07,6.25a11.26,11.26,0,0,0-1.45,5.43c0,5.93,4.19,8.67,6.68,9.78a38.05,38.05,0,0,0,3.81,1.43,37.54,37.54,0,0,1,4.35,1.66,4.41,4.41,0,0,1,2.9,3.67c0,2.2-2.26,4.55-7.25,4.55a19.24,19.24,0,0,1-4.27-.49h-.25c-3,0-4.92,1.71-5.41,4.79v0l-.17,1.49.56.18a40.52,40.52,0,0,0,10.82,1.52A16.89,16.89,0,0,0,682.05,279.75Z"/><path class="cls-15" d="M475.35,85h-29.7V0h28.22c21.33,0,30.69,7.64,30.69,20.7,0,11.59-7.15,18.12-17.38,20v.25c12.57,1.35,21.45,8.87,21.45,21.32C508.63,75.92,497.66,85,475.35,85Zm-2-78.38H453.17V38h20.21c16.27,0,23.79-6.53,23.79-16.39C497.17,11.34,489.77,6.66,473.38,6.66Zm1.48,37.83H453.17V78.14H475c17.75,0,26-5.92,26-16.52S492.48,44.49,474.86,44.49Z"/><path class="cls-15" d="M576.71,6.66H531V37.84h41.53v6.78H531V78.14h47.08V85h-54.6V0h53.24Z"/><path class="cls-15" d="M662.09,85h-8l-11.46-29.7H606L594.55,85h-7.77l33.9-85h7.76ZM624.5,8h-.25l-15.77,41h31.67Z"/><path class="cls-15" d="M737.64,47.7c0,26.12-11.34,38.82-34.76,38.82s-34.5-12.2-34.5-38.82V0h7.39V47.57c0,22.19,9.12,31.92,27.48,31.92,18.12,0,27.12-9.61,27.12-31.92V0h7.27Z"/><path class="cls-15" d="M821.84,6.66H788.69V85h-7.4V6.66H748.14V0h73.7Z"/><path class="cls-15" d="M840.79,85h-7.4V0h7.4Z"/><path class="cls-15" d="M914,6.66H868.11V41.9h41.78v6.78H868.11V85H860.6V0H914Z"/><path class="cls-15" d="M994.27,47.7c0,26.12-11.34,38.82-34.76,38.82S925,74.32,925,47.7V0h7.39V47.57c0,22.19,9.12,31.92,27.48,31.92C978,79.49,987,69.88,987,47.57V0h7.27Z"/><path class="cls-15" d="M1020.41,78.14h47.21V85h-54.73V0h7.52Z"/><path class="cls-15" d="M513.68,198.42h-7.39V158H453.17v40.42h-7.52v-85h7.52v37.83h53.12V113.39h7.39Z"/><path class="cls-15" d="M568.85,199.9c-23.91,0-40.18-15.52-40.18-44s16.27-44,40.18-44S609,127.44,609,155.9,592.76,199.9,568.85,199.9Zm0-81.09c-19.6,0-32.54,13.31-32.54,37.09s12.94,37,32.66,37,32.54-13.19,32.54-37S588.57,118.81,568.85,118.81Z"/><path class="cls-15" d="M712.14,198.42h-7.52V128.17h-.25l-32.78,70.25h-7l-32.9-70.25h-.13v70.25H624v-85h8.87L668,188.32h.25l35.13-74.93h8.75Z"/><path class="cls-15" d="M784.68,120H739v31.18h41.53V158H739v33.52H786v6.9h-54.6v-85h53.24Z"/><path class="cls-15" d="M848,125.83a37.26,37.26,0,0,0-22.43-7.14c-12.2,0-20.95,4.56-20.95,13.67,0,10.36,8,13.69,24.4,19.11s25.52,12.2,25.52,25.26c0,14.55-11.22,23.17-30.08,23.17-16,0-24.28-5.67-28.47-8.62l3-6.78c3.45,2.59,11.59,8.38,25.76,8.38,13.56,0,22.31-5.18,22.31-15.28,0-9.74-7.27-14.67-23.17-20s-26.62-10.85-26.62-24.77c0-13.31,11.71-21,28.34-21,14.42,0,21.45,4.93,25.39,7.51Z"/></g></g></g></svg>